<?xml version="1.0" encoding="UTF-8"?>
<svg version="1.1" xmlns="http://www.w3.org/2000/svg" width="1920" height="1080">
<path d="M0 0 C633.6 0 1267.2 0 1920 0 C1920 356.4 1920 712.8 1920 1080 C1286.4 1080 652.8 1080 0 1080 C0 723.6 0 367.2 0 0 Z " fill="#FEFEFE" transform="translate(0,0)"/>
<path d="M0 0 C16.62174908 -0.02348274 33.24349268 -0.04105402 49.8652544 -0.05181217 C57.58506135 -0.05694274 65.30485792 -0.0639228 73.0246582 -0.07543945 C79.76245036 -0.08548623 86.50023499 -0.0918769 93.23803443 -0.09408849 C96.79725209 -0.09537884 100.35644826 -0.09835609 103.91565895 -0.10573006 C146.31531353 -0.19005976 146.31531353 -0.19005976 158.5625 2.625 C159.33150635 2.79539795 160.1005127 2.9657959 160.89282227 3.14135742 C182.67947841 8.28447329 204.04937687 19.00529447 216.44921875 38.328125 C222.69811615 49.09448728 226.41697188 58.91809427 229 71 C229.176521 71.59611084 229.35304199 72.19222168 229.53491211 72.80639648 C230.54461957 77.56871752 230.18588757 82.55619828 230.18530273 87.4050293 C230.18745905 89.39961869 230.20587702 91.39416928 230.22460938 93.38867188 C230.24162691 104.77340317 229.33194798 115.71719333 225.3125 126.4375 C225.04977295 127.15067383 224.7870459 127.86384766 224.51635742 128.59863281 C215.4300249 152.65399562 200.24532201 168.88502029 177 180 C159.01968925 188.09634649 138.3302884 191.2108858 118.71484375 191.09765625 C117.77314835 191.0962413 116.83145294 191.09482635 115.86122131 191.09336853 C112.88661368 191.08782122 109.91208445 191.07527887 106.9375 191.0625 C104.90690214 191.05747818 102.87630308 191.05291647 100.84570312 191.04882812 C95.89710572 191.03786912 90.9485661 191.02064152 86 191 C86.01491766 203.04904003 86.0567031 215.09766602 86.13209057 227.14648819 C86.16627302 232.74224377 86.19145696 238.33772885 86.19555664 243.93359375 C86.19985832 249.34145061 86.22847587 254.74869817 86.27343178 260.15636444 C86.28634715 262.21181428 86.29073578 264.26733726 86.28615379 266.32282257 C85.90744586 284.06704222 85.90744586 284.06704222 94.1146698 299.23687744 C103.52725104 307.52690557 115.11722317 307.57245592 127 308 C127 309.65 127 311.3 127 313 C85.09 313 43.18 313 0 313 C0 311.35 0 309.7 0 308 C0.93199219 307.97421875 1.86398437 307.9484375 2.82421875 307.921875 C14.23455567 307.41423615 25.84844223 306.39907566 34.4140625 297.99609375 C40.63662335 290.16424992 41.14920243 281.49280941 41.13371277 271.89239502 C41.1371111 270.35192918 41.1371111 270.35192918 41.14057809 268.78034282 C41.14691516 265.33434476 41.14608891 261.88838606 41.14526367 258.44238281 C41.14825537 255.9735204 41.15165792 253.50465845 41.15544128 251.03579712 C41.16336605 245.02227043 41.16649593 239.00875926 41.16705366 232.9952288 C41.16752911 228.10554937 41.16958527 223.21587317 41.17275429 218.32619476 C41.18156015 204.45626767 41.18617385 190.58634832 41.18542381 176.71641842 C41.18536388 175.59512138 41.18536388 175.59512138 41.18530273 174.45117188 C41.18524141 173.32850194 41.18524141 173.32850194 41.18517885 172.18315181 C41.18477256 160.05833279 41.19433813 147.93354484 41.2084411 135.8087348 C41.22281507 123.35240415 41.2297107 110.89608864 41.22884732 98.43974948 C41.22851567 91.44919189 41.23124868 84.45866687 41.24202538 77.46811676 C41.25209841 70.89195003 41.25178456 64.31584025 41.24450874 57.73966599 C41.24346303 55.32783025 41.24582498 52.91599023 41.2518692 50.50416183 C41.25959396 47.20787367 41.25494089 43.91182266 41.24723816 40.61553955 C41.25238172 39.66464675 41.25752529 38.71375395 41.26282471 37.73404622 C41.21214139 27.89613386 39.90269293 20.30092522 33 13 C23.65127266 5.13857019 11.58643319 5.3897988 0 5 C0 3.35 0 1.7 0 0 Z " fill="#3D3B39" transform="translate(667,299)"/>
<path d="M0 0 C60.6467033 0 60.6467033 0 75.9765625 12.96484375 C86.73502731 23.78561627 91.95756484 37.28031635 95 52 C95.27142822 53.29719971 95.27142822 53.29719971 95.54833984 54.62060547 C97.29811929 64.24050403 97.3044002 73.78586686 97.26074219 83.52832031 C97.25004585 86.36284912 97.26067828 89.19674066 97.2734375 92.03125 C97.28106464 102.53560279 96.7500795 112.6340798 95 123 C94.85506104 123.90975586 94.71012207 124.81951172 94.56079102 125.75683594 C91.9455716 141.47209817 85.68194215 157.79034982 73 168 C69.77811557 170.24176425 66.47242058 172.17384475 63 174 C61.93845703 174.57041016 61.93845703 174.57041016 60.85546875 175.15234375 C42.0036403 184.42086794 20.10011567 181 0 181 C0 121.27 0 61.54 0 0 Z " fill="#FEFEFE" transform="translate(753,304)"/>
<path d="M0 0 C72.6 0 145.2 0 220 0 C222.30285235 47.20847315 222.30285235 47.20847315 222.625 61.5625 C222.66361888 63.11003718 222.70268613 64.65756322 222.7421875 66.20507812 C222.83314552 69.8032763 222.91857112 73.40157178 223 77 C221.35 77 219.7 77 218 77 C217.90295776 75.67162109 217.90295776 75.67162109 217.80395508 74.31640625 C216.41287849 42.83856449 216.41287849 42.83856449 200.6875 16.6875 C196.83434632 13.60326834 192.57105408 11.7767348 188 10 C186.89785912 9.51241714 186.89785912 9.51241714 185.77345276 9.01498413 C174.21287488 4.7842277 160.51105021 5.66452663 148.37890625 5.5859375 C146.74604418 5.56894812 145.11319057 5.55112573 143.48034668 5.5324707 C137.50782771 5.46994885 131.53515021 5.42338754 125.5625 5.375 C112.176875 5.25125 98.79125 5.1275 85 5 C85 43.28 85 81.56 85 121 C70.48 121 55.96 121 41 121 C40.98582031 114.25820313 40.97164062 107.51640625 40.95703125 100.5703125 C40.93696236 96.28640651 40.9154337 92.00260665 40.88867188 87.71875 C40.84637938 80.92671587 40.80934613 74.1349509 40.80444336 67.34277344 C40.8001491 61.86360588 40.77159229 56.38504198 40.72656822 50.90606308 C40.71362933 48.82104897 40.70927267 46.73596248 40.71384621 44.65091324 C40.94504504 29.56668484 40.94504504 29.56668484 35 16 C34.505 14.515 34.505 14.515 34 13 C32.21664663 11.8625807 32.21664663 11.8625807 30 11 C29.195625 10.65839844 28.39125 10.31679688 27.5625 9.96484375 C26.2940625 9.45630859 26.2940625 9.45630859 25 8.9375 C23.7315625 8.42509766 23.7315625 8.42509766 22.4375 7.90234375 C17.57716961 6.10308683 12.90183427 5.71511651 7.75 5.4375 C6.63238281 5.37272461 6.63238281 5.37272461 5.4921875 5.30664062 C3.661651 5.20103275 1.83084824 5.10005799 0 5 C0 3.35 0 1.7 0 0 Z " fill="#3E3C3A" transform="translate(886,494)"/>
<path d="M0 0 C14.52 0 29.04 0 44 0 C44.02578125 5.21425781 44.0515625 10.42851563 44.078125 15.80078125 C44.10332007 19.12309461 44.12967331 22.44531932 44.16015625 25.76757812 C44.20832923 31.02970605 44.25243431 36.29162851 44.27099609 41.55395508 C44.28624742 45.80119176 44.32084088 50.0478874 44.36830902 54.29488182 C44.38303609 55.90736347 44.39103598 57.51992241 44.39188385 59.13247108 C44.08104952 73.96484304 44.08104952 73.96484304 50.63433838 86.66304016 C51.08500671 87.10423691 51.53567505 87.54543365 52 88 C52 88.66 52 89.32 52 90 C54.80524845 91.42175092 57.63240199 92.77109884 60.5 94.0625 C61.62921875 94.57490234 61.62921875 94.57490234 62.78125 95.09765625 C66.2140021 96.49372269 69.41620237 97.12055619 73.109375 97.31640625 C73.86347656 97.35830078 74.61757813 97.40019531 75.39453125 97.44335938 C76.17183594 97.48267578 76.94914063 97.52199219 77.75 97.5625 C78.93916016 97.62727539 78.93916016 97.62727539 80.15234375 97.69335938 C82.10137815 97.79902991 84.05066748 97.89997966 86 98 C86 99.65 86 101.3 86 103 C44.09 103 2.18 103 -41 103 C-41 101.35 -41 99.7 -41 98 C-40.06800781 97.97421875 -39.13601563 97.9484375 -38.17578125 97.921875 C-27.38660533 97.44187122 -15.50300181 96.6688777 -7.36328125 88.7109375 C-2.22499825 82.26231871 -0.86233539 75.7361897 -0.79467773 67.66113281 C-0.78477814 66.92903091 -0.77487854 66.19692902 -0.76467896 65.44264221 C-0.7331618 63.02950239 -0.70834536 60.61634291 -0.68359375 58.203125 C-0.66301577 56.52731828 -0.64201907 54.85151666 -0.62062073 53.17572021 C-0.56548726 48.76991913 -0.51603958 44.36407188 -0.46777344 39.95819092 C-0.4086511 34.66924502 -0.34247121 29.38038329 -0.27747345 24.09150696 C-0.17957372 16.06105615 -0.09064262 8.03055078 0 0 Z " fill="#3E3C3A" transform="translate(927,704)"/>
<path d="M0 0 C0.82113281 -0.020625 1.64226563 -0.04125 2.48828125 -0.0625 C9.51710118 -0.1070567 14.8104986 1.2903324 20.75 5.25 C21.41 3.93 22.07 2.61 22.75 1.25 C24.6875 1.625 24.6875 1.625 26.75 2.25 C31.5032435 11.756487 25.72308776 26.65965218 23.19970703 36.36694336 C22.39972565 39.71670254 22.58621252 42.81046297 22.75 46.25 C23.41 47.24 24.07 48.23 24.75 49.25 C29.01857189 47.91470315 30.72011143 46.37379036 33.1875 42.6875 C36.33700316 38.37765357 36.33700316 38.37765357 40.1875 37.1875 C41.033125 37.208125 41.87875 37.22875 42.75 37.25 C42.75 37.91 42.75 38.57 42.75 39.25 C41.08333333 40.25 39.41666667 41.25 37.75 42.25 C37.75 42.91 37.75 43.57 37.75 44.25 C38.74 43.26 38.74 43.26 39.75 42.25 C41.9140625 42.0546875 41.9140625 42.0546875 44.375 42.125 C45.19226563 42.14304687 46.00953125 42.16109375 46.8515625 42.1796875 C47.47804688 42.20289063 48.10453125 42.22609375 48.75 42.25 C49.245 41.26 49.245 41.26 49.75 40.25 C50.554375 40.270625 51.35875 40.29125 52.1875 40.3125 C54.68354885 40.54633621 54.68354885 40.54633621 55.75 39.25 C58.125 38.9375 58.125 38.9375 60.75 39.25 C61.20375 39.91 61.6575 40.57 62.125 41.25 C62.66125 41.91 63.1975 42.57 63.75 43.25 C67.6154622 43.60140565 71.04567073 43.43538537 74.75 42.25 C74.42 43.24 74.09 44.23 73.75 45.25 C69.7324472 46.58918427 65.95141521 46.85468967 61.75 46.25 C59.8125 44.25 59.8125 44.25 58.75 42.25 C58.09 42.25 57.43 42.25 56.75 42.25 C55.11323743 44.2100281 55.11323743 44.2100281 53.75 46.25 C52.7909375 45.9715625 52.7909375 45.9715625 51.8125 45.6875 C46.95944791 44.99420684 41.75515921 44.93232395 37.5625 47.6875 C36.964375 48.203125 36.36625 48.71875 35.75 49.25 C31.49022861 50.95390856 27.33816338 51.99029264 22.75 52.25 C19.36161865 50.26370748 18.79591628 46.87047942 17.75 43.25 C17.47178875 40.79859141 17.26442655 38.33820235 17.125 35.875 C17.05023437 34.62976563 16.97546875 33.38453125 16.8984375 32.1015625 C16.84945312 31.16054688 16.80046875 30.21953125 16.75 29.25 C15.98429688 30.02923828 15.98429688 30.02923828 15.203125 30.82421875 C9.28918365 36.49698873 3.44961887 39.54015106 -4.25 42.25 C-4.26981934 42.839021 -4.28963867 43.42804199 -4.31005859 44.03491211 C-4.40643277 46.75282351 -4.51564712 49.47008103 -4.625 52.1875 C-4.67140625 53.57678711 -4.67140625 53.57678711 -4.71875 54.99414062 C-4.97071095 60.97821322 -5.78424807 66.44061735 -7.25 72.25 C-8.57 72.25 -9.89 72.25 -11.25 72.25 C-13.00109328 65.48095166 -13.53252839 59.35067807 -13.4375 52.375 C-13.43105469 51.3842749 -13.42460938 50.3935498 -13.41796875 49.37280273 C-13.32195733 39.98243589 -12.8622338 30.61936372 -12.25 21.25 C-11.26 20.92 -10.27 20.59 -9.25 20.25 C-8.92 17.28 -8.59 14.31 -8.25 11.25 C-7.26 11.58 -6.27 11.91 -5.25 12.25 C-5.25 21.16 -5.25 30.07 -5.25 39.25 C9.02868558 33.04440872 9.02868558 33.04440872 17.6875 20.75 C18.75682033 16.82693105 19.30867325 13.32033368 18.75 9.25 C16.06997237 5.43611452 13.14812874 4.45510788 8.75 3.25 C6.11609952 3.0378553 3.62870828 2.91580372 1 2.9375 C0.29552734 2.94241455 -0.40894531 2.9473291 -1.13476562 2.95239258 C-10.20630023 3.15506779 -18.112232 5.51179435 -25.25 11.25 C-27.59168764 14.76253146 -27.74623677 16.11469356 -27.25 20.25 C-25.37230858 23.09920053 -25.37230858 23.09920053 -23.25 25.25 C-26.22454134 24.92842796 -27.84335278 24.62860258 -30.0625 22.5625 C-31.71894859 19.33678432 -31.9429561 17.85337169 -31.25 14.25 C-26.75115971 6.69254222 -19.6092043 3.07828149 -11.35717773 0.70581055 C-7.60539019 -0.10575096 -3.82480671 0.02357354 0 0 Z " fill="#FF4848" transform="translate(879.25,621.75)"/>
<path d="M0 0 C0 1.32 0 2.64 0 4 C-2.475 3.505 -2.475 3.505 -5 3 C-4.50168276 6.68754757 -3.89932357 8.60490662 -1 11 C2.57104439 9.12050295 4.54744301 7.82946843 6 4 C6.99 4.33 7.98 4.66 9 5 C9 6.98 9 8.96 9 11 C13.19162145 10.04735876 14.7207791 9.36739592 17.375 5.875 C17.91125 4.92625 18.4475 3.9775 19 3 C19.99 3.33 20.98 3.66 22 4 C21.67 6.31 21.34 8.62 21 11 C21.66 11 22.32 11 23 11 C23.93380961 6.46859347 23.93380961 6.46859347 23 2 C24.65 2 26.3 2 28 2 C28.66 3.65 29.32 5.3 30 7 C31.98 7 33.96 7 36 7 C36 6.34 36 5.68 36 5 C37.93398808 4.72414434 39.87253909 4.48012585 41.8125 4.25 C43.43091797 4.04117188 43.43091797 4.04117188 45.08203125 3.828125 C46.52642578 3.91320312 46.52642578 3.91320312 48 4 C49.01318417 5.32334259 50.01348416 6.65665928 51 8 C53.75483302 8.26685308 53.75483302 8.26685308 56.6875 7.75 C57.68136719 7.62109375 58.67523437 7.4921875 59.69921875 7.359375 C60.45847656 7.24078125 61.21773437 7.1221875 62 7 C62 7.66 62 8.32 62 9 C59.04044139 10.69213943 56.84300083 11.29521319 53.4375 11.3125 C52.67308594 11.32925781 51.90867187 11.34601562 51.12109375 11.36328125 C48.48953491 10.91257228 47.59987739 10.10079747 46 8 C46 7.34 46 6.68 46 6 C45.2575 6.825 44.515 7.65 43.75 8.5 C41 11 41 11 37 11 C37 10.34 37 9.68 37 9 C35.3934324 9.25620684 33.7897517 9.53055871 32.1875 9.8125 C31.29417969 9.96332031 30.40085937 10.11414063 29.48046875 10.26953125 C26.77368042 11.06664844 25.8700158 11.97095059 24 14 C20.25150923 14.46856135 19.23253796 14.15502531 16 12 C15.01 12.66 14.02 13.32 13 14 C10.5 14.3125 10.5 14.3125 8 14 C6.1875 12.5 6.1875 12.5 5 11 C1.92816732 13.21854583 -0.03286508 15.05026424 -2.125 18.25 C-2.74375 19.1575 -3.3625 20.065 -4 21 C-4.99 21 -5.98 21 -7 21 C-6.67 17.7 -6.34 14.4 -6 11 C-9.74691447 9.60229416 -9.74691447 9.60229416 -12 11 C-16.05142119 11.25860135 -17.54337669 11.30441554 -21 9 C-21.8353125 10.0209375 -21.8353125 10.0209375 -22.6875 11.0625 C-23.450625 11.701875 -24.21375 12.34125 -25 13 C-27.75 12.75 -27.75 12.75 -30 12 C-30.33 9.69 -30.66 7.38 -31 5 C-30.01 4.67 -29.02 4.34 -28 4 C-27.67 5.98 -27.34 7.96 -27 10 C-26.2575 9.195625 -25.515 8.39125 -24.75 7.5625 C-22.24695171 5.23011409 -21.2819045 4.36465606 -18 4 C-17.608125 4.66 -17.21625 5.32 -16.8125 6 C-15.14583333 8.29166667 -15.14583333 8.29166667 -12.3125 8.25 C-11.549375 8.1675 -10.78625 8.085 -10 8 C-9.9175 7.071875 -9.835 6.14375 -9.75 5.1875 C-9 2 -9 2 -7.25 0.0625 C-4.41184751 -1.27773867 -2.94905709 -0.90110078 0 0 Z " fill="#FF4343" transform="translate(1034,657)"/>
<path d="M0 0 C0.99 0.66 1.98 1.32 3 2 C3 2.66 3 3.32 3 4 C4.13695312 3.7834375 5.27390625 3.566875 6.4453125 3.34375 C16.10647973 1.5767706 25.15089818 0.57246664 35 1 C35.495 1.99 35.495 1.99 36 3 C35.44650879 3.0501123 34.89301758 3.10022461 34.32275391 3.15185547 C31.75629787 3.38740325 29.19068184 3.63116924 26.625 3.875 C25.75488281 3.95363281 24.88476562 4.03226563 23.98828125 4.11328125 C23.11816406 4.19707031 22.24804688 4.28085937 21.3515625 4.3671875 C20.17327881 4.47716064 20.17327881 4.47716064 18.97119141 4.58935547 C14.61483661 5.19144164 10.31236313 6.13752737 6 7 C5.67 16.24 5.34 25.48 5 35 C8.63 35 12.26 35 16 35 C16 35.66 16 36.32 16 37 C12.04 37 8.08 37 4 37 C3.97421875 38.01578125 3.9484375 39.0315625 3.921875 40.078125 C3.49102934 51.85600909 2.01116335 62.78716215 -6 72 C-8.94275664 74.11510633 -11.40967205 74.46029846 -15 74 C-16.8125 72.8125 -16.8125 72.8125 -18 71 C-18.3125 68.4375 -18.3125 68.4375 -18 66 C-17.01 65.01 -17.01 65.01 -16 64 C-15.01 64.33 -14.02 64.66 -13 65 C-13.495 65.495 -13.495 65.495 -14 66 C-14.04063832 67.66617115 -14.042721 69.33388095 -14 71 C-11.65851769 71.12213894 -11.65851769 71.12213894 -9 70 C-0.94872143 60.41623375 0.40209852 47.06295561 0 35 C0.66 35 1.32 35 2 35 C1.67 26.09 1.34 17.18 1 8 C-2.3 7.67 -5.6 7.34 -9 7 C-9.66 6.67 -10.32 6.34 -11 6 C-10.625 3.5625 -10.625 3.5625 -10 1 C-6.87293041 -0.5635348 -3.42017557 -0.39958487 0 0 Z " fill="#FF3F3F" transform="translate(986,629)"/>
<path d="M0 0 C1.65 0 3.3 0 5 0 C5.33 1.32 5.66 2.64 6 4 C6.33 2.68 6.66 1.36 7 0 C8.98 0 10.96 0 13 0 C13 5.28 13 10.56 13 16 C10.36 16 7.72 16 5 16 C4.67 14.68 4.34 13.36 4 12 C3.67 13.32 3.34 14.64 3 16 C2.01 16 1.02 16 0 16 C0 10.72 0 5.44 0 0 Z " fill="#3D3B39" transform="translate(805,819)"/>
<path d="M0 0 C6.93359375 -0.09765625 6.93359375 -0.09765625 9 0 C10 1 10 1 10.0625 3.4375 C10.041875 4.283125 10.02125 5.12875 10 6 C10 6.66 10 7.32 10 8 C10 10.66666667 10 13.33333333 10 16 C6.7 16 3.4 16 0 16 C0 10.72 0 5.44 0 0 Z " fill="#555351" transform="translate(1131,819)"/>
<path d="M0 0 C6.93359375 -0.09765625 6.93359375 -0.09765625 9 0 C10 1 10 1 10.0625 3.4375 C10.041875 4.283125 10.02125 5.12875 10 6 C10 6.66 10 7.32 10 8 C10 10.66666667 10 13.33333333 10 16 C6.7 16 3.4 16 0 16 C0 10.72 0 5.44 0 0 Z " fill="#555351" transform="translate(848,819)"/>
<path d="M0 0 C2.64 0 5.28 0 8 0 C9.9170684 1.9170684 9 5.42754461 9 8 C9.33 8.33 9.66 8.66 10 9 C10.1875 11.4375 10.1875 11.4375 10 14 C9.34 14.66 8.68 15.32 8 16 C5.36 16 2.72 16 0 16 C0 10.72 0 5.44 0 0 Z " fill="#4E4C4A" transform="translate(1039,819)"/>
<path d="M0 0 C1.32 0 2.64 0 4 0 C4.33 0.66 4.66 1.32 5 2 C5.33 1.34 5.66 0.68 6 0 C7.32 0 8.64 0 10 0 C10 5.28 10 10.56 10 16 C8.68 16 7.36 16 6 16 C5.67 14.68 5.34 13.36 5 12 C4.67 13.32 4.34 14.64 4 16 C2.68 16 1.36 16 0 16 C0 10.72 0 5.44 0 0 Z " fill="#4D4B49" transform="translate(750,819)"/>
<path d="M0 0 C2.64 0 5.28 0 8 0 C9 1 9 1 9.09765625 4.37890625 C9.09098369 5.77347077 9.07902532 7.16801743 9.0625 8.5625 C9.05798828 9.27341797 9.05347656 9.98433594 9.04882812 10.71679688 C9.03700864 12.47790013 9.01907263 14.23896036 9 16 C8.01 16 7.02 16 6 16 C6 13.36 6 10.72 6 8 C5.34 8 4.68 8 4 8 C4 10.64 4 13.28 4 16 C2.68 16 1.36 16 0 16 C0 10.72 0 5.44 0 0 Z " fill="#444240" transform="translate(905,819)"/>
<path d="M0 0 C2.64 0 5.28 0 8 0 C10 2 10 2 10.25 5 C10 8 10 8 8 10 C7.01 10 6.02 10 5 10 C5 11.98 5 13.96 5 16 C3.35 16 1.7 16 0 16 C0 10.72 0 5.44 0 0 Z " fill="#5D5B5A" transform="translate(693,819)"/>
<path d="M0 0 C1.98 0 3.96 0 6 0 C7.38529821 5.45461169 8.2396943 10.36718401 8 16 C6.68 16 5.36 16 4 16 C4 15.01 4 14.02 4 13 C3.34 13 2.68 13 2 13 C2 13.99 2 14.98 2 16 C0.68 16 -0.64 16 -2 16 C-1.34 10.72 -0.68 5.44 0 0 Z " fill="#4A4846" transform="translate(830,819)"/>
<path d="M0 0 C1.98 0 3.96 0 6 0 C6.66 5.28 7.32 10.56 8 16 C6.68 16 5.36 16 4 16 C4 15.01 4 14.02 4 13 C3.34 13 2.68 13 2 13 C2 13.99 2 14.98 2 16 C0.68 16 -0.64 16 -2 16 C-1.85936865 13.70800823 -1.71234057 11.41640814 -1.5625 9.125 C-1.48128906 7.84882812 -1.40007813 6.57265625 -1.31640625 5.2578125 C-1 2 -1 2 0 0 Z " fill="#494745" transform="translate(732,819)"/>
<path d="M0 0 C3.3 0 6.6 0 10 0 C9.85833643 1.91697937 9.71150416 3.83357723 9.5625 5.75 C9.48128906 6.81734375 9.40007813 7.8846875 9.31640625 8.984375 C9.05909227 11.43679962 8.68187782 13.63921291 8 16 C6.02 16 4.04 16 2 16 C1.34 10.72 0.68 5.44 0 0 Z " fill="#4C4A49" transform="translate(986,819)"/>
<path d="M0 0 C1.134375 0.020625 2.26875 0.04125 3.4375 0.0625 C3.7675 1.3825 4.0975 2.7025 4.4375 4.0625 C3.4475 4.0625 2.4575 4.0625 1.4375 4.0625 C1.4375 3.4025 1.4375 2.7425 1.4375 2.0625 C0.7775 2.0625 0.1175 2.0625 -0.5625 2.0625 C0.11388011 5.17065785 0.11388011 5.17065785 2.5 6.3125 C4.4375 8.0625 4.4375 8.0625 4.75 11.6875 C4.4375 15.0625 4.4375 15.0625 3.4375 16.0625 C-0.0625 16.1875 -0.0625 16.1875 -3.5625 16.0625 C-4.5625 15.0625 -4.5625 15.0625 -4.625 12.5 C-4.604375 11.695625 -4.58375 10.89125 -4.5625 10.0625 C-3.5725 9.7325 -2.5825 9.4025 -1.5625 9.0625 C-2.0575 8.670625 -2.5525 8.27875 -3.0625 7.875 C-4.5625 6.0625 -4.5625 6.0625 -4.8125 3.4375 C-4.4098239 -0.38792293 -4.0331706 0.07075738 0 0 Z " fill="#4B4947" transform="translate(789.5625,818.9375)"/>
<path d="M0 0 C2.31 0 4.62 0 7 0 C7 0.99 7 1.98 7 3 C6.34 3 5.68 3 5 3 C5 3.99 5 4.98 5 6 C5.66 6 6.32 6 7 6 C7 6.99 7 7.98 7 9 C6.34 9 5.68 9 5 9 C5 10.32 5 11.64 5 13 C5.99 13 6.98 13 8 13 C8 13.99 8 14.98 8 16 C5.36 16 2.72 16 0 16 C0 10.72 0 5.44 0 0 Z " fill="#504E4C" transform="translate(1006,819)"/>
<path d="M0 0 C2.31 0 4.62 0 7 0 C7 0.99 7 1.98 7 3 C6.34 3 5.68 3 5 3 C5 3.99 5 4.98 5 6 C5.66 6 6.32 6 7 6 C7 6.99 7 7.98 7 9 C6.34 9 5.68 9 5 9 C5 10.32 5 11.64 5 13 C5.99 13 6.98 13 8 13 C8 13.99 8 14.98 8 16 C5.36 16 2.72 16 0 16 C0 10.72 0 5.44 0 0 Z " fill="#504E4C" transform="translate(887,819)"/>
<path d="M0 0 C2.31 0 4.62 0 7 0 C7 0.99 7 1.98 7 3 C6.01 3 5.02 3 4 3 C4 3.99 4 4.98 4 6 C4.99 6 5.98 6 7 6 C7 6.99 7 7.98 7 9 C6.01 9 5.02 9 4 9 C4 10.32 4 11.64 4 13 C4.99 13 5.98 13 7 13 C7 13.99 7 14.98 7 16 C4.69 16 2.38 16 0 16 C0 10.72 0 5.44 0 0 Z " fill="#3C3A38" transform="translate(1114,819)"/>
<path d="M0 0 C2.31 0 4.62 0 7 0 C7 0.99 7 1.98 7 3 C6.01 3 5.02 3 4 3 C4 3.99 4 4.98 4 6 C4.99 6 5.98 6 7 6 C7 6.99 7 7.98 7 9 C6.01 9 5.02 9 4 9 C4 10.32 4 11.64 4 13 C4.99 13 5.98 13 7 13 C7 13.99 7 14.98 7 16 C4.69 16 2.38 16 0 16 C0 10.72 0 5.44 0 0 Z " fill="#3C3A38" transform="translate(1059,819)"/>
<path d="M0 0 C2.97 0 5.94 0 9 0 C9 0.99 9 1.98 9 3 C8.01 3 7.02 3 6 3 C6 7.29 6 11.58 6 16 C4.68 16 3.36 16 2 16 C2 11.71 2 7.42 2 3 C1.34 3 0.68 3 0 3 C0 2.01 0 1.02 0 0 Z " fill="#444240" transform="translate(1095,819)"/>
<path d="M0 0 C2.97 0 5.94 0 9 0 C9 0.99 9 1.98 9 3 C8.34 3 7.68 3 7 3 C7 7.29 7 11.58 7 16 C5.68 16 4.36 16 3 16 C3 11.71 3 7.42 3 3 C2.01 3 1.02 3 0 3 C0 2.01 0 1.02 0 0 Z " fill="#454341" transform="translate(1076,819)"/>
<path d="M0 0 C2.97 0 5.94 0 9 0 C9 0.99 9 1.98 9 3 C8.34 3 7.68 3 7 3 C7 7.29 7 11.58 7 16 C5.68 16 4.36 16 3 16 C3 11.71 3 7.42 3 3 C2.01 3 1.02 3 0 3 C0 2.01 0 1.02 0 0 Z " fill="#3F3D3B" transform="translate(868,819)"/>
<path d="M0 0 C1.32 0 2.64 0 4 0 C4 4.29 4 8.58 4 13 C4.99 13 5.98 13 7 13 C7 13.99 7 14.98 7 16 C4.69 16 2.38 16 0 16 C0 10.72 0 5.44 0 0 Z " fill="#403E3C" transform="translate(955,819)"/>
<path d="M0 0 C1.32 0 2.64 0 4 0 C4 4.29 4 8.58 4 13 C4.99 13 5.98 13 7 13 C7 13.99 7 14.98 7 16 C4.69 16 2.38 16 0 16 C0 10.72 0 5.44 0 0 Z " fill="#3B3937" transform="translate(713,819)"/>
<path d="M0 0 C-1.33804303 4.01412909 -3.52415367 4.73005954 -7 7 C-9.34168764 10.51253146 -9.49623677 11.86469356 -9 16 C-7.12230858 18.84920053 -7.12230858 18.84920053 -5 21 C-7.97454134 20.67842796 -9.59335278 20.37860258 -11.8125 18.3125 C-13.46894859 15.08678432 -13.6929561 13.60337169 -13 10 C-9.9318415 5.50674056 -5.93705516 0 0 0 Z " fill="#FF3D3D" transform="translate(861,626)"/>
<path d="M0 0 C1.32 0 2.64 0 4 0 C4 5.28 4 10.56 4 16 C2.68 16 1.36 16 0 16 C0 10.72 0 5.44 0 0 Z " fill="#3B3937" transform="translate(972,819)"/>
<path d="M0 0 C1.65 0 3.3 0 5 0 C5 1.98 5 3.96 5 6 C4.67 6 4.34 6 4 6 C3.67 9.3 3.34 12.6 3 16 C2.01 16 1.02 16 0 16 C0 10.72 0 5.44 0 0 Z " fill="#3B3937" transform="translate(805,819)"/>
<path d="M0 0 C0.33 1.32 0.66 2.64 1 4 C-0.45736087 4.19491452 -1.91594593 4.38069358 -3.375 4.5625 C-4.18710937 4.66691406 -4.99921875 4.77132812 -5.8359375 4.87890625 C-8 5 -8 5 -10 4 C-9.625 1.5625 -9.625 1.5625 -9 -1 C-5.79937313 -2.60031344 -3.27728194 -1.03173691 0 0 Z " fill="#FF5353" transform="translate(985,631)"/>
<path d="M0 0 C0.33 1.32 0.66 2.64 1 4 C1.99 4 2.98 4 4 4 C4.33 3.01 4.66 2.02 5 1 C5 4.63 5 8.26 5 12 C3.35 12 1.7 12 0 12 C-0.19477739 10.37585622 -0.38059458 8.75063577 -0.5625 7.125 C-0.66691406 6.22007812 -0.77132812 5.31515625 -0.87890625 4.3828125 C-1 2 -1 2 0 0 Z " fill="#5E5D5B" transform="translate(810,823)"/>
<path d="M0 0 C0.99 0.33 1.98 0.66 3 1 C3 2.98 3 4.96 3 7 C4.65 7 6.3 7 8 7 C8.33 7.66 8.66 8.32 9 9 C6.69 9.33 4.38 9.66 2 10 C-1.07692308 5.69230769 -1.07692308 5.69230769 -0.6875 2.1875 C-0.460625 1.465625 -0.23375 0.74375 0 0 Z " fill="#FF5555" transform="translate(1040,661)"/>
<path d="M0 0 C0.86625 0.4640625 0.86625 0.4640625 1.75 0.9375 C4.51795905 2.24459178 6.93361147 3 10 3 C10 3.66 10 4.32 10 5 C7.2201184 6.3899408 5.0813674 6.18488204 2 6 C-0.375 5 -0.375 5 -2 4 C-1.34 2.68 -0.68 1.36 0 0 Z " fill="#FF3A3A" transform="translate(1014,662)"/>
<path d="M0 0 C0.99 0.66 1.98 1.32 3 2 C2.67 3.98 2.34 5.96 2 8 C0.68 8 -0.64 8 -2 8 C-1.125 1.125 -1.125 1.125 0 0 Z " fill="#FFE6E6" transform="translate(1056,660)"/>
<path d="M0 0 C0.66 0.33 1.32 0.66 2 1 C1 4 1 4 -1.28515625 5.16796875 C-2.20167969 5.50441406 -3.11820313 5.84085938 -4.0625 6.1875 C-5.44115234 6.70376953 -5.44115234 6.70376953 -6.84765625 7.23046875 C-7.55792969 7.48441406 -8.26820313 7.73835937 -9 8 C-9 7.01 -9 6.02 -9 5 C-7.54735962 4.1361871 -6.0876837 3.28419546 -4.625 2.4375 C-3.40683594 1.72400391 -3.40683594 1.72400391 -2.1640625 0.99609375 C-1.44992187 0.66738281 -0.73578125 0.33867188 0 0 Z " fill="#FF5050" transform="translate(886,655)"/>
<path d="M0 0 C0 0.33 0 0.66 0 1 C-3.96 1.66 -7.92 2.32 -12 3 C-12 2.01 -12 1.02 -12 0 C-7.74433453 -1.16063604 -4.3164922 -0.76173392 0 0 Z " fill="#FF6161" transform="translate(1008,632)"/>
<path d="M0 0 C1.98 0 3.96 0 6 0 C6.33 0.99 6.66 1.98 7 3 C4.36 3 1.72 3 -1 3 C-0.67 2.01 -0.34 1.02 0 0 Z " fill="#FFF1F1" transform="translate(979,631)"/>
<path d="M0 0 C0 0.66 0 1.32 0 2 C-2.75924185 3.80411967 -3.88972103 4.0127245 -7.25 3.625 C-8.1575 3.41875 -9.065 3.2125 -10 3 C-10 2.67 -10 2.34 -10 2 C-8.7090864 1.66376204 -7.41723903 1.33110751 -6.125 1 C-5.40570312 0.814375 -4.68640625 0.62875 -3.9453125 0.4375 C-2 0 -2 0 0 0 Z " fill="#FF4E4E" transform="translate(1096,664)"/>
<path d="M0 0 C1.32 0.66 2.64 1.32 4 2 C1.33333333 3.33333333 -1.33333333 4.66666667 -4 6 C-1.125 1.125 -1.125 1.125 0 0 Z " fill="#FFD4D4" transform="translate(919,661)"/>
</svg>
